<svg width="75" height="69" viewBox="0 0 75 69" fill="none" xmlns="http://www.w3.org/2000/svg">
<g clip-path="url(#clip0_103_111)">
<path d="M0.42286 12.2767C-0.92514 4.69669 7.05056 -1.10651 13.8481 2.50839L53.4245 23.5551C59.4466 26.7576 60.0368 35.1596 54.5215 39.1725L22.7933 62.2582C17.2781 66.2711 9.46526 63.1243 8.27106 56.409L0.42286 12.2767Z" fill="#272442"/>
<path d="M59.8872 1.87452C66.3588 -2.29538 74.7918 2.82142 74.0808 10.4875L69.9458 55.1211C69.3168 61.9126 61.7941 65.7009 55.963 62.1626L22.4177 41.8072C16.5866 38.2689 16.4731 29.847 22.2067 26.1528L59.8872 1.87452Z" fill="#41337A" fill-opacity="0.99"/>
<path d="M27.4076 14.7489C30.7773 7.82655 40.6408 7.82655 44.0105 14.7489L63.6296 55.0521C66.6144 61.1848 62.1488 68.3259 55.3281 68.3259H16.0901C9.26938 68.3259 4.80329 61.1848 7.78859 55.0521L27.4076 14.7489Z" fill="#C2EFEB"/>
<path d="M43.4675 42.4161C43.1904 42.4161 42.8988 42.2995 42.6946 42.0953L34.8196 34.2057C34.455 33.8411 34.3967 33.287 34.6738 32.8495L37.1384 28.9557C37.8238 27.8765 38.8592 27.2057 40.0696 27.0745C41.4259 26.9432 42.8259 27.4682 43.9196 28.562L48.3384 32.9807C49.3884 34.0307 49.9134 35.4453 49.753 36.8453C49.6217 38.0703 48.9655 39.1349 47.9446 39.7765L44.0509 42.2411C43.8759 42.3578 43.6717 42.4161 43.4675 42.4161ZM36.978 33.287L43.628 39.937L46.7925 37.939C47.2446 37.6474 47.5363 37.1807 47.5946 36.612C47.6821 35.8828 47.3759 35.1099 46.8071 34.5411L42.3884 30.1224C41.7613 29.4953 41.003 29.1599 40.3175 29.262C39.7634 29.3203 39.3113 29.6265 38.9905 30.137L36.978 33.287Z" fill="#41337A"/>
<path d="M27.298 54.2826C26.0001 54.2826 24.8334 53.816 23.9584 52.9556C22.9376 51.9347 22.4855 50.5201 22.6751 48.9451L24.1042 36.7972C24.5417 33.1222 26.1605 31.7806 29.9376 31.9993L35.6542 32.3347C36.2521 32.3785 36.7188 32.8889 36.6751 33.4868C36.6313 34.0847 36.1209 34.5514 35.523 34.5076L29.8063 34.1868C27.2105 34.0264 26.5688 34.5368 26.2771 37.0597L24.848 49.1931C24.7459 50.0826 24.9792 50.8701 25.5042 51.3951C26.0438 51.9201 26.8313 52.1681 27.7209 52.0514L39.8542 50.6222C42.4063 50.316 42.9751 49.6451 42.7271 47.1368L42.3771 41.3764C42.348 40.7785 42.8001 40.2535 43.398 40.2243C43.9959 40.1806 44.5209 40.6472 44.5501 41.2451L44.8855 46.9618C45.2355 50.5931 43.8063 52.3431 40.0876 52.7951L27.9542 54.2243C27.7501 54.268 27.5167 54.2826 27.298 54.2826Z" fill="#41337A"/>
<path d="M25.4417 52.5781C25.1646 52.5781 24.8875 52.476 24.6687 52.2573C24.2458 51.8344 24.2458 51.1344 24.6687 50.7115L29.1021 46.2781C29.525 45.8552 30.225 45.8552 30.6479 46.2781C31.0708 46.701 31.0708 47.401 30.6479 47.824L26.2146 52.2573C25.9958 52.476 25.7188 52.5781 25.4417 52.5781Z" fill="#41337A"/>
</g>
<defs>
<clipPath id="clip0_103_111">
<rect width="73.8505" height="67.943" fill="white" transform="translate(0.272461 0.382812)"/>
</clipPath>
</defs>
</svg>
