<svg width="141" height="124" viewBox="0 0 141 124" fill="none" xmlns="http://www.w3.org/2000/svg">
<path d="M35.4233 42.2768C34.0753 34.6968 42.051 28.8936 48.8485 32.5085L88.4249 53.5552C94.447 56.7577 95.0372 65.1597 89.5219 69.1726L57.7937 92.2583C52.2785 96.2712 44.4657 93.1244 43.2715 86.4091L35.4233 42.2768Z" fill="#272442"/>
<path d="M94.8872 31.8746C101.359 27.7047 109.792 32.8215 109.081 40.4876L104.946 85.1212C104.317 91.9127 96.7941 95.7011 90.963 92.1628L57.4177 71.8074C51.5866 68.2691 51.4731 59.8471 57.2067 56.1529L94.8872 31.8746Z" fill="#41337A" fill-opacity="0.99"/>
<path d="M62.4071 44.7489C65.7768 37.8266 75.6403 37.8266 79.01 44.7489L98.6291 85.0521C101.614 91.1848 97.1483 98.3259 90.3276 98.3259H51.0896C44.2689 98.3259 39.8028 91.1848 42.7881 85.0521L62.4071 44.7489Z" fill="#C2EFEB"/>
<path d="M78.4675 72.4161C78.1904 72.4161 77.8988 72.2995 77.6946 72.0953L69.8196 64.2057C69.455 63.8411 69.3967 63.287 69.6738 62.8495L72.1384 58.9557C72.8238 57.8765 73.8592 57.2057 75.0696 57.0745C76.4259 56.9432 77.8259 57.4682 78.9196 58.562L83.3384 62.9807C84.3884 64.0307 84.9134 65.4453 84.753 66.8453C84.6217 68.0703 83.9655 69.1349 82.9446 69.7765L79.0509 72.2411C78.8759 72.3578 78.6717 72.4161 78.4675 72.4161ZM71.978 63.287L78.628 69.937L81.7925 67.939C82.2446 67.6474 82.5363 67.1807 82.5946 66.612C82.6821 65.8828 82.3759 65.1099 81.8071 64.5411L77.3884 60.1224C76.7613 59.4953 76.003 59.1599 75.3175 59.262C74.7634 59.3203 74.3113 59.6265 73.9905 60.137L71.978 63.287Z" fill="#41337A"/>
<path d="M62.298 84.2826C61.0001 84.2826 59.8334 83.816 58.9584 82.9556C57.9376 81.9347 57.4855 80.5201 57.6751 78.9451L59.1042 66.7972C59.5417 63.1222 61.1605 61.7806 64.9376 61.9993L70.6542 62.3347C71.2521 62.3785 71.7188 62.8889 71.6751 63.4868C71.6313 64.0847 71.1209 64.5514 70.523 64.5076L64.8063 64.1868C62.2105 64.0264 61.5688 64.5368 61.2771 67.0597L59.848 79.1931C59.7459 80.0826 59.9792 80.8701 60.5042 81.3951C61.0438 81.9201 61.8313 82.1681 62.7209 82.0514L74.8542 80.6222C77.4063 80.316 77.9751 79.6451 77.7271 77.1368L77.3771 71.3764C77.348 70.7785 77.8001 70.2535 78.398 70.2243C78.9959 70.1806 79.5209 70.6472 79.5501 71.2451L79.8855 76.9618C80.2355 80.5931 78.8063 82.3431 75.0876 82.7951L62.9542 84.2243C62.7501 84.268 62.5167 84.2826 62.298 84.2826Z" fill="#41337A"/>
<path d="M60.4417 82.5781C60.1646 82.5781 59.8875 82.476 59.6687 82.2573C59.2458 81.8344 59.2458 81.1344 59.6687 80.7115L64.1021 76.2781C64.525 75.8552 65.225 75.8552 65.6479 76.2781C66.0708 76.701 66.0708 77.401 65.6479 77.824L61.2146 82.2573C60.9958 82.476 60.7188 82.5781 60.4417 82.5781Z" fill="#41337A"/>
</svg>
