<svg width="25" height="24" viewBox="0 0 25 24" fill="none" xmlns="http://www.w3.org/2000/svg">
<path d="M22.4331 5.80021C21.6814 6.1263 20.8865 6.34187 20.0731 6.44021C20.9313 5.92753 21.5744 5.12099 21.8831 4.17021C21.0767 4.65027 20.1939 4.98851 19.2731 5.17021C18.6576 4.50278 17.8381 4.05851 16.9429 3.90706C16.0478 3.75562 15.1276 3.90557 14.3269 4.3334C13.5261 4.76123 12.89 5.44274 12.5183 6.27105C12.1467 7.09935 12.0604 8.0276 12.2731 8.91021C10.6425 8.82774 9.04755 8.40316 7.59176 7.66407C6.13597 6.92498 4.85195 5.8879 3.82311 4.62021C3.46224 5.25038 3.27262 5.96403 3.27311 6.69021C3.27183 7.36459 3.43732 8.02883 3.75486 8.62377C4.0724 9.21872 4.53212 9.72592 5.09311 10.1002C4.44108 10.0825 3.80299 9.90751 3.23311 9.59021V9.64021C3.23799 10.5851 3.5691 11.4993 4.17042 12.2282C4.77174 12.957 5.60636 13.4559 6.53311 13.6402C6.17636 13.7488 5.80598 13.806 5.43311 13.8102C5.175 13.8072 4.91753 13.7838 4.66311 13.7402C4.92702 14.553 5.43773 15.2634 6.12418 15.7724C6.81063 16.2814 7.63868 16.5638 8.49311 16.5802C7.05031 17.7155 5.26899 18.3351 3.43311 18.3402C3.09884 18.3413 2.76484 18.3213 2.43311 18.2802C4.30753 19.4905 6.49192 20.1329 8.72311 20.1302C10.2628 20.1462 11.7902 19.8552 13.2162 19.2743C14.6422 18.6934 15.9381 17.8341 17.0283 16.7467C18.1185 15.6593 18.9811 14.3656 19.5657 12.9411C20.1503 11.5166 20.4451 9.98994 20.4331 8.45021C20.4331 8.28021 20.4331 8.10021 20.4331 7.92021C21.2178 7.33502 21.8946 6.61763 22.4331 5.80021Z" fill="#1E1E1E"/>
</svg>
